# xmcd
#
# Track frame offsets: 
#        150
#        11317
#        31235
#        40715
#        54852
#        70467
#        86487
#        96240
#        114430
#        123957
#        142092
#
# Disc length: 2107 seconds
#
# Revision: 7
# Processed by: cddbd v1.5.2PL0 Copyright (c) Steve Scherf et al.
# Submitted via: ExactAudioCopyFreeDBPlugin 1.0
#
DISCID=8708390b
DTITLE=Various Artist - An Austin Rhythm and Blues Christmas
DYEAR=1983
DGENRE=Holiday
TTITLE0=Angela Strehli - Boogie Woogie Santa Claus
TTITLE1=The Fabulous Thunderbirds - Merry Christmas, Darling
TTITLE2=Lou Ann Barton - Rockin' Around the Christmas Tree
TTITLE3=Sarah Brown - My Christmas Tree Is Hung with Tears
TTITLE4=Paul Ray - Have Yourself a Merry Little Christmas
TTITLE5=Kaz Jazz Quartet - The Christmas Song
TTITLE6=The Fabulous Thunderbirds - (Rockin') Winter Wonderland
TTITLE7=Lou Ann Barton - Please Come Home for Christmas
TTITLE8=Charles Sexton - Santa, Bring My Baby Back to Me
TTITLE9=Angela Strehli - Sweet Little Baby Boy
TTITLE10=Paul Ray - Let's Make Every Day a Christmas Day
EXTD=
EXTT0=
EXTT1=
EXTT2=
EXTT3=
EXTT4=
EXTT5=
EXTT6=
EXTT7=
EXTT8=
EXTT9=
EXTT10=
PLAYORDER=
